{"accessors":[{"bufferView":2,"componentType":5126,"count":1063,"max":[0.5000009536743164,0.5562232732772827,0.5564873814582825],"min":[-0.5000009536743164,-0.4806147813796997,-0.5564873814582825],"type":"VEC3"},{"bufferView":2,"byteOffset":12756,"componentType":5126,"count":1063,"max":[1,0.9981701970100403,0.9983327388763428],"min":[-1,-0.9995260834693909,-0.9999995827674866],"type":"VEC3"},{"bufferView":3,"componentType":5126,"count":1063,"max":[1,0.8689756989479065,0.9999988079071045,1],"min":[-0.06585746258497238,-0.8689596056938171,-1,-1],"type":"VEC4"},{"bufferView":1,"componentType":5126,"count":1063,"max":[0.875,1],"min":[0.125,0],"type":"VEC2"},{"bufferView":0,"componentType":5125,"count":5085,"max":[1062],"min":[0],"type":"SCALAR"},{"bufferView":4,"componentType":5126,"count":80,"max":[2.6666667461395264],"min":[0.03333333507180214],"type":"SCALAR"},{"bufferView":5,"componentType":5126,"count":80,"max":[0,4.42312479019165,0],"min":[0,1.9980000257492065,0],"type":"VEC3"},{"bufferView":4,"byteOffset":320,"componentType":5126,"count":80,"max":[2.6666667461395264],"min":[0.03333333507180214],"type":"SCALAR"},{"bufferView":6,"componentType":5126,"count":80,"max":[8.25143035093738e-17,1,8.25143035093738e-17,1],"min":[-8.636461088512644e-17,-0.849513053894043,-8.636461088512644e-17,-0.4592578113079071],"type":"VEC4"}],"animations":[{"channels":[{"sampler":0,"target":{"node":5,"path":"translation"}},{"sampler":1,"target":{"node":5,"path":"rotation"}}],"name":"Take 001","samplers":[{"input":5,"interpolation":"LINEAR","output":6},{"input":7,"interpolation":"LINEAR","output":8}]}],"asset":{"extras":{"author":"Haxis (https://sketchfab.com/Haxis)","license":"SKETCHFAB Standard (https://sketchfab.com/licenses)","source":"https://sketchfab.com/3d-models/heart-b92bbd0bb0994a32ba7a06cf0aee7c5b","title":"Heart"},"generator":"Sketchfab-7.18.0","version":"2.0"},"bufferViews":[{"buffer":0,"byteLength":20340,"byteOffset":0,"name":"floatBufferViews","target":34963},{"buffer":0,"byteLength":8504,"byteOffset":20340,"byteStride":8,"name":"floatBufferViews","target":34962},{"buffer":0,"byteLength":25512,"byteOffset":28844,"byteStride":12,"name":"floatBufferViews","target":34962},{"buffer":0,"byteLength":17008,"byteOffset":54356,"byteStride":16,"name":"floatBufferViews","target":34962},{"buffer":0,"byteLength":640,"byteOffset":71364,"name":"floatBufferViews"},{"buffer":0,"byteLength":960,"byteOffset":72004,"byteStride":12,"name":"floatBufferViews"},{"buffer":0,"byteLength":1280,"byteOffset":72964,"byteStride":16,"name":"floatBufferViews"}],"buffers":[{"byteLength":74244,"uri":"data:application/octet-stream;base64,"}],"materials":[{"doubleSided":true,"name":"phong2","pbrMetallicRoughness":{"baseColorFactor":[1,0,0,1],"metallicFactor":1,"roughnessFactor":0.17511432926829273}}],"meshes":[{"name":"pCube1_phong2_0","primitives":[{"attributes":{"NORMAL":1,"POSITION":0,"TANGENT":2,"TEXCOORD_0":3},"indices":4,"material":0,"mode":4}]}],"nodes":[{"children":[1],"name":"RootNode (gltf orientation matrix)","rotation":[-0.7071067811865475,0,0,0.7071067811865476]},{"children":[2],"name":"RootNode (model correction matrix)"},{"children":[3],"matrix":[1,0,0,0,0,0,1,0,0,-1,0,0,0,0,0,1],"name":"903c176537954a799c1062e01596077c.fbx"},{"children":[4],"name":""},{"children":[5],"name":"RootNode"},{"children":[6],"name":"pCube1","rotation":[0,0.03337089717388153,0,0.9994430541992188],"scale":[0.5630166530609131,3.980393648147583,3.980393648147583],"translation":[0,2.073389768600464,0]},{"mesh":0,"name":"pCube1_phong2_0"}],"scene":0,"scenes":[{"name":"OSG_Scene","nodes":[0]}]}